<svg width="77" height="79" viewBox="0 0 77 79" fill="none" xmlns="http://www.w3.org/2000/svg">
<path d="M22.33 0H54.67C66.99 0 77 10.27 77 22.91V56.09C77 62.1661 74.6474 67.9934 70.4597 72.2898C66.272 76.5863 60.5923 79 54.67 79H22.33C10.01 79 0 68.73 0 56.09V22.91C0 16.8339 2.35262 11.0066 6.54031 6.71018C10.728 2.41373 16.4077 0 22.33 0M21.56 7.9C17.8841 7.9 14.3588 9.39817 11.7595 12.0649C9.16025 14.7317 7.7 18.3486 7.7 22.12V56.88C7.7 64.7405 13.8985 71.1 21.56 71.1H55.44C59.1159 71.1 62.6412 69.6018 65.2405 66.9351C67.8398 64.2683 69.3 60.6514 69.3 56.88V22.12C69.3 14.2595 63.1015 7.9 55.44 7.9H21.56ZM58.7125 13.825C59.9889 13.825 61.2129 14.3452 62.1155 15.2712C63.018 16.1971 63.525 17.453 63.525 18.7625C63.525 20.072 63.018 21.3279 62.1155 22.2538C61.2129 23.1798 59.9889 23.7 58.7125 23.7C57.4361 23.7 56.2121 23.1798 55.3095 22.2538C54.407 21.3279 53.9 20.072 53.9 18.7625C53.9 17.453 54.407 16.1971 55.3095 15.2712C56.2121 14.3452 57.4361 13.825 58.7125 13.825ZM38.5 19.75C43.6054 19.75 48.5017 21.8308 52.1118 25.5346C55.7219 29.2385 57.75 34.262 57.75 39.5C57.75 44.738 55.7219 49.7615 52.1118 53.4654C48.5017 57.1692 43.6054 59.25 38.5 59.25C33.3946 59.25 28.4983 57.1692 24.8882 53.4654C21.2781 49.7615 19.25 44.738 19.25 39.5C19.25 34.262 21.2781 29.2385 24.8882 25.5346C28.4983 21.8308 33.3946 19.75 38.5 19.75M38.5 27.65C35.4367 27.65 32.499 28.8985 30.3329 31.1208C28.1669 33.3431 26.95 36.3572 26.95 39.5C26.95 42.6428 28.1669 45.6569 30.3329 47.8792C32.499 50.1015 35.4367 51.35 38.5 51.35C41.5632 51.35 44.501 50.1015 46.6671 47.8792C48.8331 45.6569 50.05 42.6428 50.05 39.5C50.05 36.3572 48.8331 33.3431 46.6671 31.1208C44.501 28.8985 41.5632 27.65 38.5 27.65Z" fill="#828282"/>
</svg>
